<mxfile host="app.diagrams.net" modified="2023-11-05T17:06:22.294Z" agent="Mozilla/5.0 (X11; Ubuntu; Linux x86_64; rv:109.0) Gecko/20100101 Firefox/119.0" etag="-zfPShdmEnQc3GH0TaCv" version="22.0.8" type="github">
  <diagram name="Page-1" id="3fvI-bENxn95KzQ8RNjb">
    <mxGraphModel dx="2924" dy="1123" grid="1" gridSize="10" guides="1" tooltips="1" connect="1" arrows="1" fold="1" page="1" pageScale="1" pageWidth="850" pageHeight="1100" math="0" shadow="0">
      <root>
        <mxCell id="0" />
        <mxCell id="1" parent="0" />
        <mxCell id="3TsH-70e2ZZxLYGmlFhx-2" value="" style="rounded=0;whiteSpace=wrap;html=1;strokeColor=#deddda;strokeWidth=2;" vertex="1" parent="1">
          <mxGeometry x="120" y="310" width="190" height="310" as="geometry" />
        </mxCell>
        <mxCell id="3TsH-70e2ZZxLYGmlFhx-9" value="Sprint planning" style="text;html=1;strokeColor=none;fillColor=none;align=center;verticalAlign=middle;whiteSpace=wrap;rounded=0;fontSize=22;fontStyle=1" vertex="1" parent="1">
          <mxGeometry x="120" y="310" width="190" height="70" as="geometry" />
        </mxCell>
        <mxCell id="3TsH-70e2ZZxLYGmlFhx-10" value="&lt;div style=&quot;font-size: 18px;&quot;&gt;First Monday&lt;/div&gt;&lt;div style=&quot;font-size: 18px;&quot;&gt;&lt;br&gt;&lt;/div&gt;&lt;div style=&quot;font-size: 18px;&quot;&gt;Estimate User Stories&lt;/div&gt;&lt;div style=&quot;font-size: 18px;&quot;&gt;&lt;br&gt;&lt;/div&gt;&lt;div style=&quot;font-size: 18px;&quot;&gt;Define Goal&lt;/div&gt;&lt;div style=&quot;font-size: 18px;&quot;&gt;&lt;br&gt;&lt;/div&gt;&lt;div style=&quot;font-size: 18px;&quot;&gt;Choose User Stories&lt;br style=&quot;font-size: 18px;&quot;&gt;&lt;/div&gt;" style="text;html=1;strokeColor=none;fillColor=none;spacing=5;spacingTop=-20;whiteSpace=wrap;overflow=hidden;rounded=0;align=center;verticalAlign=top;fontSize=18;" vertex="1" parent="1">
          <mxGeometry x="120" y="410" width="190" height="210" as="geometry" />
        </mxCell>
        <mxCell id="3TsH-70e2ZZxLYGmlFhx-11" value="" style="rounded=0;whiteSpace=wrap;html=1;strokeColor=#deddda;strokeWidth=2;" vertex="1" parent="1">
          <mxGeometry x="-110" y="310" width="190" height="310" as="geometry" />
        </mxCell>
        <mxCell id="3TsH-70e2ZZxLYGmlFhx-12" value="Sprint" style="text;html=1;strokeColor=none;fillColor=none;align=center;verticalAlign=middle;whiteSpace=wrap;rounded=0;fontSize=22;fontStyle=1" vertex="1" parent="1">
          <mxGeometry x="-110" y="310" width="190" height="70" as="geometry" />
        </mxCell>
        <mxCell id="3TsH-70e2ZZxLYGmlFhx-13" value="&lt;div&gt;Two Weeks&lt;/div&gt;&lt;div&gt;&lt;br&gt;&lt;/div&gt;&lt;div&gt;Sprint Goal (SMART)&lt;br&gt;&lt;/div&gt;" style="text;html=1;strokeColor=none;fillColor=none;spacing=5;spacingTop=-20;whiteSpace=wrap;overflow=hidden;rounded=0;align=center;verticalAlign=top;fontSize=18;" vertex="1" parent="1">
          <mxGeometry x="-110" y="410" width="190" height="210" as="geometry" />
        </mxCell>
        <mxCell id="3TsH-70e2ZZxLYGmlFhx-14" value="" style="rounded=0;whiteSpace=wrap;html=1;strokeColor=#deddda;strokeWidth=2;" vertex="1" parent="1">
          <mxGeometry x="580" y="310" width="190" height="310" as="geometry" />
        </mxCell>
        <mxCell id="3TsH-70e2ZZxLYGmlFhx-15" value="Sprint Review" style="text;html=1;strokeColor=none;fillColor=none;align=center;verticalAlign=middle;whiteSpace=wrap;rounded=0;fontSize=22;fontStyle=1" vertex="1" parent="1">
          <mxGeometry x="580" y="310" width="190" height="70" as="geometry" />
        </mxCell>
        <mxCell id="3TsH-70e2ZZxLYGmlFhx-16" value="&lt;div&gt;Last Day&lt;/div&gt;&lt;div&gt;&lt;br&gt;&lt;/div&gt;&lt;div&gt;Completed?&lt;/div&gt;&lt;div&gt;&lt;br&gt;&lt;/div&gt;&lt;div&gt;Problems?&lt;/div&gt;&lt;div&gt;&lt;br&gt;&lt;/div&gt;&lt;div&gt;Testing Poductincrement&lt;br&gt;&lt;/div&gt;" style="text;html=1;strokeColor=none;fillColor=none;spacing=5;spacingTop=-20;whiteSpace=wrap;overflow=hidden;rounded=0;align=center;verticalAlign=top;fontSize=18;" vertex="1" parent="1">
          <mxGeometry x="580" y="410" width="190" height="210" as="geometry" />
        </mxCell>
        <mxCell id="3TsH-70e2ZZxLYGmlFhx-17" value="" style="rounded=0;whiteSpace=wrap;html=1;strokeColor=#deddda;strokeWidth=2;" vertex="1" parent="1">
          <mxGeometry x="350" y="310" width="190" height="310" as="geometry" />
        </mxCell>
        <mxCell id="3TsH-70e2ZZxLYGmlFhx-18" value="Daily Scrum" style="text;html=1;strokeColor=none;fillColor=none;align=center;verticalAlign=middle;whiteSpace=wrap;rounded=0;fontSize=22;fontStyle=1" vertex="1" parent="1">
          <mxGeometry x="350" y="310" width="190" height="70" as="geometry" />
        </mxCell>
        <mxCell id="3TsH-70e2ZZxLYGmlFhx-19" value="&lt;div&gt;&lt;strike&gt;Daily&lt;/strike&gt;&lt;/div&gt;&lt;div&gt;&lt;br&gt;&lt;/div&gt;&lt;div&gt;Twice a week&lt;/div&gt;&lt;div&gt;&lt;br&gt;&lt;/div&gt;&lt;div&gt;Current state&lt;/div&gt;&lt;div&gt;&lt;br&gt;&lt;/div&gt;&lt;div&gt;MS Teams&lt;br&gt;&lt;/div&gt;" style="text;html=1;strokeColor=none;fillColor=none;spacing=5;spacingTop=-20;whiteSpace=wrap;overflow=hidden;rounded=0;align=center;verticalAlign=top;fontSize=18;" vertex="1" parent="1">
          <mxGeometry x="350" y="410" width="190" height="210" as="geometry" />
        </mxCell>
        <mxCell id="3TsH-70e2ZZxLYGmlFhx-20" value="" style="rounded=0;whiteSpace=wrap;html=1;strokeColor=#deddda;strokeWidth=2;" vertex="1" parent="1">
          <mxGeometry x="810" y="310" width="190" height="310" as="geometry" />
        </mxCell>
        <mxCell id="3TsH-70e2ZZxLYGmlFhx-21" value="Sprint Retro" style="text;html=1;strokeColor=none;fillColor=none;align=center;verticalAlign=middle;whiteSpace=wrap;rounded=0;fontSize=22;fontStyle=1" vertex="1" parent="1">
          <mxGeometry x="810" y="310" width="190" height="70" as="geometry" />
        </mxCell>
        <mxCell id="3TsH-70e2ZZxLYGmlFhx-22" value="&lt;div&gt;Last Day&lt;/div&gt;&lt;div&gt;&lt;br&gt;&lt;/div&gt;&lt;div&gt;Feedback&lt;/div&gt;&lt;div&gt;&lt;br&gt;&lt;/div&gt;&lt;div&gt;Do&#39;s &amp;amp; Dont&#39;s&lt;br&gt;&lt;/div&gt;" style="text;html=1;strokeColor=none;fillColor=none;spacing=5;spacingTop=-20;whiteSpace=wrap;overflow=hidden;rounded=0;align=center;verticalAlign=top;fontSize=18;" vertex="1" parent="1">
          <mxGeometry x="810" y="410" width="190" height="210" as="geometry" />
        </mxCell>
        <mxCell id="3TsH-70e2ZZxLYGmlFhx-7" value="" style="rounded=0;whiteSpace=wrap;html=1;fillColor=none;strokeColor=#fbc200;strokeWidth=4;" vertex="1" parent="1">
          <mxGeometry x="-110" y="310" width="1110" height="70" as="geometry" />
        </mxCell>
      </root>
    </mxGraphModel>
  </diagram>
</mxfile>
